HIERARCHY
ROOT Hips
{
	OFFSET 0.00000 0.00000 0.00000
	CHANNELS 6 Xposition Yposition Zposition Zrotation Yrotation Xrotation 
	JOINT LHipJoint
	{
		OFFSET 0 0 0
		CHANNELS 3 Zrotation Yrotation Xrotation
		JOINT LeftUpLeg
		{
			OFFSET 1.41496 -1.84582 0.78394
			CHANNELS 3 Zrotation Yrotation Xrotation
			JOINT LeftLeg
			{
				OFFSET 2.58040 -7.08960 0.00000
				CHANNELS 3 Zrotation Yrotation Xrotation
				JOINT LeftFoot
				{
					OFFSET 2.64719 -7.27309 0.00000
					CHANNELS 3 Zrotation Yrotation Xrotation
					JOINT LeftToeBase
					{
						OFFSET 0.20718 -0.56921 2.20259
						CHANNELS 3 Zrotation Yrotation Xrotation
						End Site
						{
							OFFSET 0.00000 -0.00000 1.14243
						}
					}
				}
			}
		}
	}
	JOINT RHipJoint
	{
		OFFSET 0 0 0
		CHANNELS 3 Zrotation Yrotation Xrotation
		JOINT RightUpLeg
		{
			OFFSET -1.40551 -1.84582 0.78394
			CHANNELS 3 Zrotation Yrotation Xrotation
			JOINT RightLeg
			{
				OFFSET -2.56572 -7.04926 0.00000
				CHANNELS 3 Zrotation Yrotation Xrotation
				JOINT RightFoot
				{
					OFFSET -2.57974 -7.08778 0.00000
					CHANNELS 3 Zrotation Yrotation Xrotation
					JOINT RightToeBase
					{
						OFFSET -0.26704 -0.73369 2.20815
						CHANNELS 3 Zrotation Yrotation Xrotation
						End Site
						{
							OFFSET -0.00000 -0.00000 1.16246
						}
					}
				}
			}
		}
	}
	JOINT LowerBack
	{
		OFFSET 0 0 0
		CHANNELS 3 Zrotation Yrotation Xrotation
		JOINT Spine
		{
			OFFSET -0.04690 2.05196 -0.07017
			CHANNELS 3 Zrotation Yrotation Xrotation
			JOINT Spine1
			{
				OFFSET 0.04085 2.05260 0.00800
				CHANNELS 3 Zrotation Yrotation Xrotation
				JOINT Neck
				{
					OFFSET 0 0 0
					CHANNELS 3 Zrotation Yrotation Xrotation
					JOINT Neck1
					{
						OFFSET -0.03582 1.80995 0.19301
						CHANNELS 3 Zrotation Yrotation Xrotation
						JOINT Head
						{
							OFFSET 0.00952 1.80195 -0.36389
							CHANNELS 3 Zrotation Yrotation Xrotation
							End Site
							{
								OFFSET 0.00392 1.85062 -0.14494
							}
						}
					}
				}
				JOINT LeftShoulder
				{
					OFFSET 0 0 0
					CHANNELS 3 Zrotation Yrotation Xrotation
					JOINT LeftArm
					{
						OFFSET 3.55224 1.39726 -0.13667
						CHANNELS 3 Zrotation Yrotation Xrotation
						JOINT LeftForeArm
						{
							OFFSET 5.14507 -0.00000 -0.00000
							CHANNELS 3 Zrotation Yrotation Xrotation
							JOINT LeftHand
							{
								OFFSET 3.50646 -0.00000 0.00000
								CHANNELS 3 Zrotation Yrotation Xrotation
								JOINT LeftFingerBase
								{
									OFFSET 0 0 0
									CHANNELS 3 Zrotation Yrotation Xrotation
									JOINT LeftHandIndex1
									{
										OFFSET 0.62997 -0.00000 0.00000
										CHANNELS 3 Zrotation Yrotation Xrotation
										End Site
										{
											OFFSET 0.50790 -0.00000 0.00000
										}
									}
								}
								JOINT LThumb
								{
									OFFSET 0 0 0
									CHANNELS 3 Zrotation Yrotation Xrotation
									End Site
									{
										OFFSET 0.51565 -0.00000 0.51565
									}
								}
							}
						}
					}
				}
				JOINT RightShoulder
				{
					OFFSET 0 0 0
					CHANNELS 3 Zrotation Yrotation Xrotation
					JOINT RightArm
					{
						OFFSET -3.06467 1.61290 -0.28813
						CHANNELS 3 Zrotation Yrotation Xrotation
						JOINT RightForeArm
						{
							OFFSET -5.23200 -0.00000 -0.00000
							CHANNELS 3 Zrotation Yrotation Xrotation
							JOINT RightHand
							{
								OFFSET -3.65641 -0.00000 0.00000
								CHANNELS 3 Zrotation Yrotation Xrotation
								JOINT RightFingerBase
								{
									OFFSET 0 0 0
									CHANNELS 3 Zrotation Yrotation Xrotation
									JOINT RightHandIndex1
									{
										OFFSET -0.65681 -0.00000 0.00000
										CHANNELS 3 Zrotation Yrotation Xrotation
										End Site
										{
											OFFSET -0.52953 -0.00000 0.00000
										}
									}
								}
								JOINT RThumb
								{
									OFFSET 0 0 0
									CHANNELS 3 Zrotation Yrotation Xrotation
									End Site
									{
										OFFSET -0.53762 -0.00000 0.53762
									}
								}
							}
						}
					}
				}
			}
		}
	}
}
MOTION
Frames: 8
Frame Time: 0.0416667
0.00 0.00 0.00 0 0 0 0 0 0 -21 0 0 0 0 0 0 0 0 0 0 0 0 0 0 21 0 0 0 0 0 0 0 0 0 0 0 0 0 0 0 0 0 0 0 0 0 0 -16 0 0 21 0 0 11 0 0 0 -8 0 0 0 0 0 0 0 0 0 0 0 0 0 0 0 0 0 0 0 0 8 0 0 0 0 0 0 0 0 0 0 0 0 0 0 0 0 0
0.00 0.00 0.00 180.0810 19.2183 -167.7530 0.0000 0.0000 0.0000 -8.1941 -11.2197 -37.8774 8.2593 16.3067 53.4915 0.3606 -10.6785 -12.1919 0.0116 0.6961 1.9130 0.0000 0.0000 0.0000 24.0489 0.9247 -14.3257 -2.4852 -9.8110 28.3667 -1.0780 -11.9054 -27.2223 -1.1261 6.7405 -18.9487 2.3010 1.8247 8.1997 3.2641 3.0205 -1.9209 1.7052 1.5163 -6.6857 2.2021 3.8199 -15.2805 -6.6471 5.6878 10.0347 -1.9173 2.3972 5.7944 0.0000 -0.0000 0.0000 -90.7168 1.8247 31.1757 19.7810 -30.3776 -5.4202 -0.0000 -0.0000 6.7336 6.8047 0.5456 0.0651 -7.1250 0.0000 -0.0000 -15.5139 30.3150 5.7520 0.0000 -0.0000 0.0000 84.2312 -2.9566 21.1886 -20.8117 31.6078 -5.9509 0.0000 0.0000 3.4940 -17.0690 -10.9052 3.3245 7.1250 -0.0000 -0.0000 8.9012 -41.2110 0.8393
0.00 0.00 0.00 181.5280 23.9489 -159.4100 0.0000 0.0000 0.0000 -7.4408 -4.1017 -55.5702 12.9245 18.7547 68.8908 0.2428 -16.5687 -13.9426 0.1048 -2.0877 -5.7482 0.0000 0.0000 0.0000 20.9654 -2.6553 -16.4844 -2.3842 -9.6242 27.7682 -1.9768 -9.1899 -31.1782 -3.1109 10.8724 -31.8507 6.1563 3.6054 13.8674 3.9267 6.4893 -1.5663 -0.6352 3.0228 -9.2887 1.7652 3.9801 -16.2392 -10.7830 6.2854 2.8919 -3.0908 2.7673 3.9111 -0.0000 -0.0000 0.0000 -92.2322 4.9097 38.2273 23.1659 -34.2697 -7.2315 -0.0000 -0.0000 1.4421 16.0898 1.2022 0.3467 -7.1250 0.0000 -0.0000 -8.3466 31.1661 2.8491 -0.0000 -0.0000 0.0000 83.0119 4.4002 39.3108 -22.4038 33.4303 -6.8070 0.0000 0.0000 1.2470 -19.7770 -8.7447 3.1290 7.1250 -0.0000 -0.0000 6.1890 -39.1921 0.8897
0.00 0.00 0.00 182.4770 11.0884 -152.6220 0.0000 0.0000 0.0000 -16.8651 -3.5440 -56.8459 15.8788 19.5878 77.8704 -0.0352 -24.3123 -16.9149 0.0985 2.0237 5.5710 0.0000 0.0000 0.0000 20.4787 -5.1149 -9.1275 -4.0523 -12.2296 36.5492 0.0149 -12.0855 -16.9932 -5.3297 13.7458 -42.2285 8.1153 2.4679 12.4698 4.9880 5.6628 -3.4862 -0.3695 2.5694 -10.6221 2.1733 2.3001 -16.2947 -10.4618 3.8721 -0.5080 -3.2719 1.8086 2.7268 -0.0000 0.0000 0.0000 -87.0869 17.6981 42.2729 44.0375 -50.2882 -21.4958 -0.0000 0.0000 -1.0236 18.7683 -5.6803 -1.9263 -7.1250 0.0000 -0.0000 -5.8913 23.9869 3.0028 -0.0000 0.0000 0.0000 82.4095 -2.1314 42.1600 -50.0788 53.0272 -26.2371 0.0000 0.0000 0.0105 -27.7568 0.0708 -0.0372 7.1250 -0.0000 -0.0000 -0.9388 -29.8992 -0.3459
0.00 0.00 0.00 179.9980 8.6392 -152.8250 0.0000 0.0000 0.0000 -19.8748 -5.7764 -48.6217 14.2197 19.1793 72.8742 0.9884 -23.8685 -23.0372 0.0638 1.6293 4.4822 0.0000 0.0000 0.0000 17.5383 -2.6956 -15.7040 -8.1407 -16.2218 53.0680 0.3751 -11.2761 -7.6946 -3.8036 11.8943 -35.3592 5.6283 1.8633 12.4898 4.6505 4.2994 -3.5387 0.9259 2.0180 -10.8813 1.9708 2.0635 -16.8646 -9.7762 3.5699 -0.9935 -3.0496 1.7056 2.6227 -0.0000 -0.0000 0.0000 -87.1739 14.9015 42.6991 49.6714 -52.8621 -25.9120 -0.0000 0.0000 -1.1488 20.0322 -6.7991 -2.4717 -7.1250 0.0000 -0.0000 -4.9418 22.7550 2.6553 -0.0000 -0.0000 0.0000 82.4083 -5.9924 35.4170 -47.7577 52.0501 -24.3945 0.0000 -0.0000 -0.6024 -29.3687 -0.5038 0.2835 7.1250 -0.0000 -0.0000 -2.2222 -30.5538 -0.7845
0.00 0.00 0.00 176.8520 5.3130 -153.1580 0.0000 0.0000 0.0000 -22.8639 -8.2798 -40.3777 12.5334 18.6071 67.6697 1.5723 -23.8207 -26.2395 0.0641 1.6335 4.4938 0.0000 0.0000 0.0000 14.5173 -1.4622 -25.8326 -13.6707 -19.0111 71.1963 0.1617 -9.4422 -10.0720 -3.2692 11.1186 -32.6811 2.9453 0.8011 12.9481 4.3254 2.2855 -3.3109 2.5137 1.1753 -10.9906 1.8596 1.8660 -17.0012 -9.0475 3.3121 -2.3968 -3.1033 1.6946 2.4356 0.0000 0.0000 0.0000 -87.1163 9.0593 44.3574 57.1983 -55.5159 -32.0205 -0.0000 0.0000 -0.7043 22.2093 -7.2530 -2.9507 -7.1250 0.0000 -0.0000 -3.3483 22.1572 1.8413 0.0000 0.0000 0.0000 82.2790 -10.0337 28.2566 -45.5234 51.0223 -22.6449 0.0000 -0.0000 -2.2815 -32.1000 -1.4018 0.8792 7.1250 -0.0000 -0.0000 -4.4278 -31.6154 -1.4533
0.00 0.00 0.00 173.2980 0.3985 -153.1070 0.0000 0.0000 0.0000 -25.9717 -9.9840 -27.1976 9.3392 17.0211 57.2561 1.5597 -24.6985 -26.5467 0.0685 1.6887 4.6462 0.0000 0.0000 0.0000 10.7215 0.0435 -44.8079 -20.0436 -20.0000 90.1276 -0.6075 -4.2862 -16.9067 -3.6926 11.7397 -34.8172 1.4533 -0.9004 13.2504 4.3743 -0.6918 -3.1941 4.1188 -0.3275 -10.9193 1.4668 2.0902 -17.1865 -8.6403 3.6631 -2.1970 -2.8595 1.8666 2.5339 0.0000 -0.0000 0.0000 -87.6823 -0.1758 47.3442 73.0381 -58.8845 -45.3656 -0.0000 0.0000 -0.3811 24.5842 -8.5311 -3.8827 -7.1250 0.0000 -0.0000 -1.6565 20.6144 0.9676 0.0000 -0.0000 0.0000 79.9941 -18.3048 21.6649 -46.1583 51.3235 -23.1395 0.0000 -0.0000 -4.1572 -35.5792 -2.4674 1.7641 7.1250 -0.0000 -0.0000 -7.2952 -32.9511 -2.1687
0.00 0.00 0.00 170.5390 0.8374 -152.6250 0.0000 0.0000 0.0000 -29.7114 -8.3854 -13.7343 5.5325 13.9595 43.0754 -0.3828 -24.0812 -14.2382 0.0171 0.8449 2.3221 0.0000 0.0000 0.0000 7.2670 4.3136 -64.5361 -20.9316 -19.9792 92.7246 -1.2052 2.3768 -20.1018 -4.3743 12.6425 -38.0446 0.5535 -1.5850 12.7734 4.0127 -1.7593 -3.3708 4.4489 -0.7714 -10.7519 0.6252 2.6292 -16.6746 -9.1957 4.5388 -0.4564 -2.5794 2.1743 2.7658 0.0000 0.0000 0.0000 -87.7668 -5.4738 50.8339 89.0801 -59.9968 -59.2033 -0.0000 0.0000 -0.6704 25.9636 -12.7354 -6.1270 -7.1250 0.0000 -0.0000 -0.9129 15.8703 0.6286 0.0000 0.0000 0.0000 74.7231 -26.4280 24.2675 -47.7943 52.0662 -24.4234 0.0000 -0.0000 -1.8679 -36.3902 -0.9968 0.7346 7.1250 -0.0000 -0.0000 -7.8223 -31.1611 -2.6680
